<?xml version="1.0" encoding="UTF-8" standalone="no"?>
<!DOCTYPE svg PUBLIC "-//W3C//DTD SVG 1.1//EN"
 "http://www.w3.org/Graphics/SVG/1.1/DTD/svg11.dtd">
<!-- Generated by graphviz version 2.43.0 (0)
 -->
<!-- Title: Flexagon Pages: 1 -->
<svg width="918pt" height="860pt"
 viewBox="0.00 0.00 918.19 859.63" xmlns="http://www.w3.org/2000/svg" xmlns:xlink="http://www.w3.org/1999/xlink">
<g id="graph0" class="graph" transform="scale(1 1) rotate(0) translate(4 855.63)">
<title>Flexagon</title>
<polygon fill="white" stroke="transparent" points="-4,4 -4,-855.63 914.19,-855.63 914.19,4 -4,4"/>
<!-- n0 -->
<g id="node1" class="node">
<title>n0</title>
<ellipse fill="none" stroke="black" cx="473.48" cy="-592.24" rx="56.64" ry="37.45"/>
<text text-anchor="middle" x="473.48" y="-603.54" font-family="Times,serif" font-size="14.00">1</text>
<text text-anchor="middle" x="473.48" y="-588.54" font-family="Times,serif" font-size="14.00">8,7</text>
<text text-anchor="middle" x="473.48" y="-573.54" font-family="Times,serif" font-size="14.00">14,13,12</text>
</g>
<!-- n3 -->
<g id="node4" class="node">
<title>n3</title>
<ellipse fill="none" stroke="black" cx="442.48" cy="-481.29" rx="50.41" ry="37.45"/>
<text text-anchor="middle" x="442.48" y="-492.59" font-family="Times,serif" font-size="14.00">4</text>
<text text-anchor="middle" x="442.48" y="-477.59" font-family="Times,serif" font-size="14.00">15,16</text>
<text text-anchor="middle" x="442.48" y="-462.59" font-family="Times,serif" font-size="14.00">9,10,11</text>
</g>
<!-- n0&#45;&gt;n3 -->
<g id="edge1" class="edge">
<title>n0&#45;&gt;n3</title>
<path fill="none" stroke="black" d="M463.24,-555.27C460.76,-546.53 458.06,-537.07 455.47,-527.94"/>
<polygon fill="black" stroke="black" points="458.81,-526.89 452.71,-518.23 452.08,-528.81 458.81,-526.89"/>
</g>
<!-- n8 -->
<g id="node9" class="node">
<title>n8</title>
<ellipse fill="none" stroke="black" cx="664.48" cy="-481.29" rx="40.11" ry="37.45"/>
<text text-anchor="middle" x="664.48" y="-492.59" font-family="Times,serif" font-size="14.00">9</text>
<text text-anchor="middle" x="664.48" y="-477.59" font-family="Times,serif" font-size="14.00">16,15</text>
<text text-anchor="middle" x="664.48" y="-462.59" font-family="Times,serif" font-size="14.00">4,3,2</text>
</g>
<!-- n0&#45;&gt;n8 -->
<g id="edge2" class="edge">
<title>n0&#45;&gt;n8</title>
<path fill="none" stroke="black" d="M518.26,-569.09C545.35,-555.31 580.37,-536.83 610.48,-518.77 614.91,-516.11 619.49,-513.23 624,-510.31"/>
<polygon fill="black" stroke="black" points="626.15,-513.09 632.58,-504.66 622.3,-507.24 626.15,-513.09"/>
</g>
<!-- n9 -->
<g id="node10" class="node">
<title>n9</title>
<ellipse fill="none" stroke="black" cx="423.48" cy="-259.38" rx="56.64" ry="37.45"/>
<text text-anchor="middle" x="423.48" y="-270.68" font-family="Times,serif" font-size="14.00">10</text>
<text text-anchor="middle" x="423.48" y="-255.68" font-family="Times,serif" font-size="14.00">3,4</text>
<text text-anchor="middle" x="423.48" y="-240.68" font-family="Times,serif" font-size="14.00">15,16,17</text>
</g>
<!-- n0&#45;&gt;n9 -->
<g id="edge3" class="edge">
<title>n0&#45;&gt;n9</title>
<path fill="none" stroke="black" d="M492.7,-556.97C507.56,-525.46 522.38,-478.52 501.48,-443.81 483.84,-414.52 452.1,-436.5 433.48,-407.81 414.28,-378.24 412.81,-337.91 415.57,-306.91"/>
<polygon fill="black" stroke="black" points="419.07,-307.1 416.65,-296.79 412.11,-306.36 419.07,-307.1"/>
</g>
<!-- n10 -->
<g id="node11" class="node">
<title>n10</title>
<ellipse fill="none" stroke="black" cx="296.48" cy="-481.29" rx="40.11" ry="37.45"/>
<text text-anchor="middle" x="296.48" y="-492.59" font-family="Times,serif" font-size="14.00">11</text>
<text text-anchor="middle" x="296.48" y="-477.59" font-family="Times,serif" font-size="14.00">18,17</text>
<text text-anchor="middle" x="296.48" y="-462.59" font-family="Times,serif" font-size="14.00">6,5,4</text>
</g>
<!-- n0&#45;&gt;n10 -->
<g id="edge4" class="edge">
<title>n0&#45;&gt;n10</title>
<path fill="none" stroke="black" d="M431.25,-567.22C407.33,-553.4 376.99,-535.51 350.48,-518.77 346.11,-516.01 341.58,-513.07 337.08,-510.1"/>
<polygon fill="black" stroke="black" points="338.8,-507.04 328.53,-504.41 334.92,-512.87 338.8,-507.04"/>
</g>
<!-- n15 -->
<g id="node16" class="node">
<title>n15</title>
<ellipse fill="none" stroke="black" cx="508.48" cy="-37.48" rx="37.45" ry="37.45"/>
<text text-anchor="middle" x="508.48" y="-48.78" font-family="Times,serif" font-size="14.00">16</text>
<text text-anchor="middle" x="508.48" y="-33.78" font-family="Times,serif" font-size="14.00">9,10</text>
<text text-anchor="middle" x="508.48" y="-18.78" font-family="Times,serif" font-size="14.00">3,4,5</text>
</g>
<!-- n0&#45;&gt;n15 -->
<g id="edge5" class="edge">
<title>n0&#45;&gt;n15</title>
<path fill="none" stroke="black" d="M504.2,-560.4C540.63,-520.41 596.48,-446.8 596.48,-371.34 596.48,-371.34 596.48,-371.34 596.48,-258.38 596.48,-191.2 560.64,-120.2 534.7,-77.62"/>
<polygon fill="black" stroke="black" points="537.58,-75.63 529.33,-68.98 531.64,-79.32 537.58,-75.63"/>
</g>
<!-- n1 -->
<g id="node2" class="node">
<title>n1</title>
<ellipse fill="none" stroke="black" cx="265.48" cy="-814.15" rx="40.11" ry="37.45"/>
<text text-anchor="middle" x="265.48" y="-825.45" font-family="Times,serif" font-size="14.00">2</text>
<text text-anchor="middle" x="265.48" y="-810.45" font-family="Times,serif" font-size="14.00">13,14</text>
<text text-anchor="middle" x="265.48" y="-795.45" font-family="Times,serif" font-size="14.00">7,8,9</text>
</g>
<!-- n4 -->
<g id="node5" class="node">
<title>n4</title>
<ellipse fill="none" stroke="black" cx="265.48" cy="-703.2" rx="56.64" ry="37.45"/>
<text text-anchor="middle" x="265.48" y="-714.5" font-family="Times,serif" font-size="14.00">5</text>
<text text-anchor="middle" x="265.48" y="-699.5" font-family="Times,serif" font-size="14.00">12,11</text>
<text text-anchor="middle" x="265.48" y="-684.5" font-family="Times,serif" font-size="14.00">18,17,16</text>
</g>
<!-- n1&#45;&gt;n4 -->
<g id="edge6" class="edge">
<title>n1&#45;&gt;n4</title>
<path fill="none" stroke="black" d="M265.48,-776.57C265.48,-768.39 265.48,-759.61 265.48,-751.09"/>
<polygon fill="black" stroke="black" points="268.98,-750.87 265.48,-740.87 261.98,-750.87 268.98,-750.87"/>
</g>
<!-- n1&#45;&gt;n9 -->
<g id="edge7" class="edge">
<title>n1&#45;&gt;n9</title>
<path fill="none" stroke="black" d="M235.29,-789.32C221.57,-776.55 206.79,-759.56 199.48,-740.67 179.83,-689.91 159.97,-421.62 227.48,-332.86 229.7,-329.94 307.49,-301.73 364.39,-281.38"/>
<polygon fill="black" stroke="black" points="365.79,-284.6 374.03,-277.94 363.44,-278.01 365.79,-284.6"/>
</g>
<!-- n1&#45;&gt;n10 -->
<g id="edge8" class="edge">
<title>n1&#45;&gt;n10</title>
<path fill="none" stroke="black" d="M295.67,-789.32C309.39,-776.55 324.17,-759.56 331.48,-740.67 359.32,-668.74 334.6,-578.09 314.94,-525.51"/>
<polygon fill="black" stroke="black" points="318.2,-524.23 311.35,-516.15 311.67,-526.74 318.2,-524.23"/>
</g>
<!-- n11 -->
<g id="node12" class="node">
<title>n11</title>
<ellipse fill="none" stroke="black" cx="712.48" cy="-370.34" rx="50.41" ry="37.45"/>
<text text-anchor="middle" x="712.48" y="-381.64" font-family="Times,serif" font-size="14.00">12</text>
<text text-anchor="middle" x="712.48" y="-366.64" font-family="Times,serif" font-size="14.00">5,6</text>
<text text-anchor="middle" x="712.48" y="-351.64" font-family="Times,serif" font-size="14.00">17,18,1</text>
</g>
<!-- n1&#45;&gt;n11 -->
<g id="edge9" class="edge">
<title>n1&#45;&gt;n11</title>
<path fill="none" stroke="black" d="M305.96,-811.62C415.68,-806.87 716.17,-789.6 800.48,-740.67 879.06,-695.07 919.02,-639.2 885.48,-554.77 859.8,-490.12 799.35,-435.05 757.18,-402.58"/>
<polygon fill="black" stroke="black" points="759.09,-399.64 749.01,-396.39 754.86,-405.22 759.09,-399.64"/>
</g>
<!-- n16 -->
<g id="node17" class="node">
<title>n16</title>
<ellipse fill="none" stroke="black" cx="253.48" cy="-259.38" rx="56.64" ry="37.45"/>
<text text-anchor="middle" x="253.48" y="-270.68" font-family="Times,serif" font-size="14.00">17</text>
<text text-anchor="middle" x="253.48" y="-255.68" font-family="Times,serif" font-size="14.00">6,5</text>
<text text-anchor="middle" x="253.48" y="-240.68" font-family="Times,serif" font-size="14.00">12,11,10</text>
</g>
<!-- n1&#45;&gt;n16 -->
<g id="edge10" class="edge">
<title>n1&#45;&gt;n16</title>
<path fill="none" stroke="black" d="M229.28,-797.02C175.7,-770.84 77.52,-713.46 39.48,-629.72 -9.35,-522.21 138.79,-339.44 144.48,-332.86 159.95,-314.97 180.85,-299.65 200.22,-287.77"/>
<polygon fill="black" stroke="black" points="202.18,-290.67 208.98,-282.55 198.6,-284.66 202.18,-290.67"/>
</g>
<!-- n2 -->
<g id="node3" class="node">
<title>n2</title>
<ellipse fill="none" stroke="black" cx="734.48" cy="-703.2" rx="56.64" ry="37.45"/>
<text text-anchor="middle" x="734.48" y="-714.5" font-family="Times,serif" font-size="14.00">3</text>
<text text-anchor="middle" x="734.48" y="-699.5" font-family="Times,serif" font-size="14.00">10,9</text>
<text text-anchor="middle" x="734.48" y="-684.5" font-family="Times,serif" font-size="14.00">16,15,14</text>
</g>
<!-- n5 -->
<g id="node6" class="node">
<title>n5</title>
<ellipse fill="none" stroke="black" cx="819.48" cy="-592.24" rx="56.64" ry="37.45"/>
<text text-anchor="middle" x="819.48" y="-603.54" font-family="Times,serif" font-size="14.00">6</text>
<text text-anchor="middle" x="819.48" y="-588.54" font-family="Times,serif" font-size="14.00">17,18</text>
<text text-anchor="middle" x="819.48" y="-573.54" font-family="Times,serif" font-size="14.00">11,12,13</text>
</g>
<!-- n2&#45;&gt;n5 -->
<g id="edge11" class="edge">
<title>n2&#45;&gt;n5</title>
<path fill="none" stroke="black" d="M759.98,-669.51C768.72,-658.3 778.61,-645.63 787.78,-633.87"/>
<polygon fill="black" stroke="black" points="790.6,-635.95 793.99,-625.91 785.08,-631.64 790.6,-635.95"/>
</g>
<!-- n2&#45;&gt;n10 -->
<g id="edge12" class="edge">
<title>n2&#45;&gt;n10</title>
<path fill="none" stroke="black" d="M678.99,-695.39C597.4,-684.47 450.11,-661.07 407.48,-629.72 376.54,-606.97 387.33,-585.64 364.48,-554.77 354.63,-541.46 342.6,-527.94 331.42,-516.24"/>
<polygon fill="black" stroke="black" points="333.71,-513.57 324.23,-508.84 328.69,-518.45 333.71,-513.57"/>
</g>
<!-- n2&#45;&gt;n11 -->
<g id="edge13" class="edge">
<title>n2&#45;&gt;n11</title>
<path fill="none" stroke="black" d="M732.04,-665.52C728.02,-605.08 720.01,-484.6 715.59,-418.11"/>
<polygon fill="black" stroke="black" points="719.07,-417.67 714.91,-407.92 712.08,-418.13 719.07,-417.67"/>
</g>
<!-- n12 -->
<g id="node13" class="node">
<title>n12</title>
<ellipse fill="none" stroke="black" cx="423.48" cy="-148.43" rx="37.45" ry="37.45"/>
<text text-anchor="middle" x="423.48" y="-159.73" font-family="Times,serif" font-size="14.00">13</text>
<text text-anchor="middle" x="423.48" y="-144.73" font-family="Times,serif" font-size="14.00">2,1</text>
<text text-anchor="middle" x="423.48" y="-129.73" font-family="Times,serif" font-size="14.00">8,7,6</text>
</g>
<!-- n2&#45;&gt;n12 -->
<g id="edge14" class="edge">
<title>n2&#45;&gt;n12</title>
<path fill="none" stroke="black" d="M694.1,-676.72C642.14,-640.43 558.48,-568.6 558.48,-482.29 558.48,-482.29 558.48,-482.29 558.48,-369.34 558.48,-292.79 498.34,-220.46 458.34,-180.82"/>
<polygon fill="black" stroke="black" points="460.73,-178.27 451.12,-173.8 455.85,-183.28 460.73,-178.27"/>
</g>
<!-- n17 -->
<g id="node18" class="node">
<title>n17</title>
<ellipse fill="none" stroke="black" cx="664.48" cy="-148.43" rx="40.11" ry="37.45"/>
<text text-anchor="middle" x="664.48" y="-159.73" font-family="Times,serif" font-size="14.00">18</text>
<text text-anchor="middle" x="664.48" y="-144.73" font-family="Times,serif" font-size="14.00">11,12</text>
<text text-anchor="middle" x="664.48" y="-129.73" font-family="Times,serif" font-size="14.00">5,6,7</text>
</g>
<!-- n2&#45;&gt;n17 -->
<g id="edge15" class="edge">
<title>n2&#45;&gt;n17</title>
<path fill="none" stroke="black" d="M775.37,-677C782.32,-673.05 789.53,-669.14 796.48,-665.72 834.75,-646.85 859.41,-663.5 885.48,-629.72 925.84,-577.42 904.48,-548.36 904.48,-482.29 904.48,-482.29 904.48,-482.29 904.48,-369.34 904.48,-265.57 781.02,-197.53 711.19,-167.34"/>
<polygon fill="black" stroke="black" points="712.29,-164.01 701.72,-163.34 709.56,-170.46 712.29,-164.01"/>
</g>
<!-- n6 -->
<g id="node7" class="node">
<title>n6</title>
<ellipse fill="none" stroke="black" cx="486.48" cy="-370.34" rx="43.68" ry="37.45"/>
<text text-anchor="middle" x="486.48" y="-381.64" font-family="Times,serif" font-size="14.00">7</text>
<text text-anchor="middle" x="486.48" y="-366.64" font-family="Times,serif" font-size="14.00">14,13</text>
<text text-anchor="middle" x="486.48" y="-351.64" font-family="Times,serif" font-size="14.00">2,1,18</text>
</g>
<!-- n3&#45;&gt;n6 -->
<g id="edge16" class="edge">
<title>n3&#45;&gt;n6</title>
<path fill="none" stroke="black" d="M456.64,-445.22C460.49,-435.69 464.7,-425.26 468.72,-415.31"/>
<polygon fill="black" stroke="black" points="471.99,-416.55 472.49,-405.97 465.5,-413.93 471.99,-416.55"/>
</g>
<!-- n3&#45;&gt;n11 -->
<g id="edge17" class="edge">
<title>n3&#45;&gt;n11</title>
<path fill="none" stroke="black" d="M486.16,-462.66C533.41,-443.6 608.76,-413.19 659.39,-392.76"/>
<polygon fill="black" stroke="black" points="660.9,-395.93 668.86,-388.94 658.28,-389.43 660.9,-395.93"/>
</g>
<!-- n3&#45;&gt;n12 -->
<g id="edge18" class="edge">
<title>n3&#45;&gt;n12</title>
<path fill="none" stroke="black" d="M420.94,-447.19C399.39,-411.72 367.96,-352.92 357.48,-296.86 351.36,-264.11 345.45,-252.97 357.48,-221.91 363.69,-205.87 375.27,-191.21 387.03,-179.32"/>
<polygon fill="black" stroke="black" points="389.55,-181.76 394.32,-172.3 384.69,-176.72 389.55,-181.76"/>
</g>
<!-- n13 -->
<g id="node14" class="node">
<title>n13</title>
<ellipse fill="none" stroke="black" cx="273.48" cy="-370.34" rx="37.45" ry="37.45"/>
<text text-anchor="middle" x="273.48" y="-381.64" font-family="Times,serif" font-size="14.00">14</text>
<text text-anchor="middle" x="273.48" y="-366.64" font-family="Times,serif" font-size="14.00">7,8</text>
<text text-anchor="middle" x="273.48" y="-351.64" font-family="Times,serif" font-size="14.00">1,2,3</text>
</g>
<!-- n3&#45;&gt;n13 -->
<g id="edge19" class="edge">
<title>n3&#45;&gt;n13</title>
<path fill="none" stroke="black" d="M403.52,-457.3C380.31,-443.37 350.42,-425.03 324.48,-407.81 320.28,-405.03 315.93,-402.05 311.62,-399.05"/>
<polygon fill="black" stroke="black" points="313.63,-396.19 303.44,-393.29 309.6,-401.91 313.63,-396.19"/>
</g>
<!-- n7 -->
<g id="node8" class="node">
<title>n7</title>
<ellipse fill="none" stroke="black" cx="105.48" cy="-592.24" rx="56.64" ry="37.45"/>
<text text-anchor="middle" x="105.48" y="-603.54" font-family="Times,serif" font-size="14.00">8</text>
<text text-anchor="middle" x="105.48" y="-588.54" font-family="Times,serif" font-size="14.00">1,2</text>
<text text-anchor="middle" x="105.48" y="-573.54" font-family="Times,serif" font-size="14.00">13,14,15</text>
</g>
<!-- n4&#45;&gt;n7 -->
<g id="edge20" class="edge">
<title>n4&#45;&gt;n7</title>
<path fill="none" stroke="black" d="M226.75,-675.82C204.51,-660.68 176.41,-641.54 152.86,-625.51"/>
<polygon fill="black" stroke="black" points="154.64,-622.49 144.41,-619.75 150.7,-628.27 154.64,-622.49"/>
</g>
<!-- n4&#45;&gt;n12 -->
<g id="edge21" class="edge">
<title>n4&#45;&gt;n12</title>
<path fill="none" stroke="black" d="M211.65,-691.17C152.66,-678.05 63.24,-654.74 39.48,-629.72 -7.19,-580.57 0.48,-550.07 0.48,-482.29 0.48,-482.29 0.48,-482.29 0.48,-369.34 0.48,-201.76 265.07,-161.7 375.73,-152.27"/>
<polygon fill="black" stroke="black" points="376.25,-155.74 385.94,-151.45 375.69,-148.76 376.25,-155.74"/>
</g>
<!-- n4&#45;&gt;n13 -->
<g id="edge22" class="edge">
<title>n4&#45;&gt;n13</title>
<path fill="none" stroke="black" d="M257.5,-665.97C247.67,-615.73 233.84,-522.23 247.48,-443.81 249.16,-434.14 252.02,-424.04 255.24,-414.57"/>
<polygon fill="black" stroke="black" points="258.61,-415.56 258.7,-404.97 252.02,-413.19 258.61,-415.56"/>
</g>
<!-- n14 -->
<g id="node15" class="node">
<title>n14</title>
<ellipse fill="none" stroke="black" cx="712.48" cy="-259.38" rx="43.68" ry="37.45"/>
<text text-anchor="middle" x="712.48" y="-270.68" font-family="Times,serif" font-size="14.00">15</text>
<text text-anchor="middle" x="712.48" y="-255.68" font-family="Times,serif" font-size="14.00">4,3</text>
<text text-anchor="middle" x="712.48" y="-240.68" font-family="Times,serif" font-size="14.00">10,9,8</text>
</g>
<!-- n4&#45;&gt;n14 -->
<g id="edge23" class="edge">
<title>n4&#45;&gt;n14</title>
<path fill="none" stroke="black" d="M320.9,-694.89C415.12,-679.54 606.66,-635.19 713.48,-518.77 771.99,-454.99 800.48,-414.41 771.48,-332.86 766.62,-319.21 757.97,-306.26 748.77,-295.18"/>
<polygon fill="black" stroke="black" points="751.24,-292.69 742.01,-287.47 745.97,-297.3 751.24,-292.69"/>
</g>
<!-- n5&#45;&gt;n8 -->
<g id="edge24" class="edge">
<title>n5&#45;&gt;n8</title>
<path fill="none" stroke="black" d="M781.16,-564.31C757.93,-547.98 728.32,-527.16 704.74,-510.59"/>
<polygon fill="black" stroke="black" points="706.54,-507.58 696.35,-504.69 702.52,-513.31 706.54,-507.58"/>
</g>
<!-- n5&#45;&gt;n13 -->
<g id="edge25" class="edge">
<title>n5&#45;&gt;n13</title>
<path fill="none" stroke="black" d="M763.85,-584.83C653.26,-571.68 413.79,-541.01 383.48,-518.77 353.37,-496.67 367.35,-474.09 345.48,-443.81 334.99,-429.29 321.56,-414.94 309.15,-402.89"/>
<polygon fill="black" stroke="black" points="311.25,-400.06 301.59,-395.7 306.43,-405.13 311.25,-400.06"/>
</g>
<!-- n5&#45;&gt;n14 -->
<g id="edge26" class="edge">
<title>n5&#45;&gt;n14</title>
<path fill="none" stroke="black" d="M826.25,-554.97C834.15,-502.63 841.78,-404.37 804.48,-332.86 794.22,-313.18 775.98,-297.11 758.44,-285.15"/>
<polygon fill="black" stroke="black" points="760.21,-282.12 749.92,-279.61 756.4,-287.99 760.21,-282.12"/>
</g>
<!-- n5&#45;&gt;n15 -->
<g id="edge27" class="edge">
<title>n5&#45;&gt;n15</title>
<path fill="none" stroke="black" d="M833.77,-555.93C838.06,-544.25 842.42,-531.09 845.48,-518.77 861.4,-454.52 866.48,-437.52 866.48,-371.34 866.48,-371.34 866.48,-371.34 866.48,-258.38 866.48,-114.14 652.86,-61.52 555.65,-45.05"/>
<polygon fill="black" stroke="black" points="556.21,-41.59 545.78,-43.43 555.08,-48.5 556.21,-41.59"/>
</g>
<!-- n6&#45;&gt;n9 -->
<g id="edge28" class="edge">
<title>n6&#45;&gt;n9</title>
<path fill="none" stroke="black" d="M467.41,-336.35C461.46,-326.08 454.82,-314.59 448.53,-303.71"/>
<polygon fill="black" stroke="black" points="451.4,-301.67 443.36,-294.77 445.34,-305.18 451.4,-301.67"/>
</g>
<!-- n6&#45;&gt;n14 -->
<g id="edge29" class="edge">
<title>n6&#45;&gt;n14</title>
<path fill="none" stroke="black" d="M524.31,-351.1C563.09,-332.4 623.5,-303.28 665.37,-283.1"/>
<polygon fill="black" stroke="black" points="667.04,-286.17 674.53,-278.68 664,-279.87 667.04,-286.17"/>
</g>
<!-- n6&#45;&gt;n15 -->
<g id="edge30" class="edge">
<title>n6&#45;&gt;n15</title>
<path fill="none" stroke="black" d="M488.92,-332.66C492.94,-272.22 500.95,-151.74 505.37,-85.25"/>
<polygon fill="black" stroke="black" points="508.88,-85.27 506.05,-75.06 501.89,-84.81 508.88,-85.27"/>
</g>
<!-- n6&#45;&gt;n16 -->
<g id="edge31" class="edge">
<title>n6&#45;&gt;n16</title>
<path fill="none" stroke="black" d="M448.27,-351.47C410.26,-333.69 351.56,-306.25 308.53,-286.12"/>
<polygon fill="black" stroke="black" points="309.86,-282.89 299.32,-281.82 306.9,-289.23 309.86,-282.89"/>
</g>
<!-- n7&#45;&gt;n10 -->
<g id="edge32" class="edge">
<title>n7&#45;&gt;n10</title>
<path fill="none" stroke="black" d="M147.87,-567.06C179.28,-549.15 221.92,-524.82 253.48,-506.82"/>
<polygon fill="black" stroke="black" points="255.53,-509.68 262.48,-501.69 252.06,-503.6 255.53,-509.68"/>
</g>
<!-- n7&#45;&gt;n15 -->
<g id="edge33" class="edge">
<title>n7&#45;&gt;n15</title>
<path fill="none" stroke="black" d="M87.88,-556.44C68.03,-513.9 38.48,-439.19 38.48,-371.34 38.48,-371.34 38.48,-371.34 38.48,-258.38 38.48,-73.43 340.76,-43.7 460.48,-39.17"/>
<polygon fill="black" stroke="black" points="460.93,-42.66 470.81,-38.83 460.7,-35.66 460.93,-42.66"/>
</g>
<!-- n7&#45;&gt;n16 -->
<g id="edge34" class="edge">
<title>n7&#45;&gt;n16</title>
<path fill="none" stroke="black" d="M117.33,-555.23C121.04,-543.63 125.05,-530.69 128.48,-518.77 152.06,-436.75 133.03,-406.31 176.48,-332.86 184.76,-318.86 196.53,-305.87 208.39,-294.87"/>
<polygon fill="black" stroke="black" points="211.02,-297.21 216.15,-287.93 206.36,-291.98 211.02,-297.21"/>
</g>
<!-- n7&#45;&gt;n17 -->
<g id="edge35" class="edge">
<title>n7&#45;&gt;n17</title>
<path fill="none" stroke="black" d="M100.36,-554.72C91.98,-478.27 85.32,-301.85 187.48,-221.91 237.23,-182.97 407.07,-195.72 469.48,-185.91 519.24,-178.08 575.8,-167.29 615.14,-159.48"/>
<polygon fill="black" stroke="black" points="615.89,-162.9 625.01,-157.51 614.52,-156.03 615.89,-162.9"/>
</g>
<!-- n8&#45;&gt;n11 -->
<g id="edge36" class="edge">
<title>n8&#45;&gt;n11</title>
<path fill="none" stroke="black" d="M679.4,-446.41C683.7,-436.66 688.46,-425.87 692.99,-415.58"/>
<polygon fill="black" stroke="black" points="696.24,-416.88 697.07,-406.32 689.83,-414.06 696.24,-416.88"/>
</g>
<!-- n8&#45;&gt;n16 -->
<g id="edge37" class="edge">
<title>n8&#45;&gt;n16</title>
<path fill="none" stroke="black" d="M625.07,-472.74C577.59,-462.59 496.35,-441.76 433.48,-407.81 379.12,-378.46 325.47,-331.56 291.08,-298.56"/>
<polygon fill="black" stroke="black" points="293.23,-295.77 283.62,-291.32 288.36,-300.8 293.23,-295.77"/>
</g>
<!-- n8&#45;&gt;n17 -->
<g id="edge38" class="edge">
<title>n8&#45;&gt;n17</title>
<path fill="none" stroke="black" d="M657.92,-444.28C656.1,-432.68 654.38,-419.74 653.48,-407.81 647.9,-333.88 654.1,-247.83 659.2,-196.05"/>
<polygon fill="black" stroke="black" points="662.7,-196.15 660.23,-185.85 655.74,-195.44 662.7,-196.15"/>
</g>
<!-- n9&#45;&gt;n12 -->
<g id="edge39" class="edge">
<title>n9&#45;&gt;n12</title>
<path fill="none" stroke="black" d="M423.48,-221.8C423.48,-213.63 423.48,-204.85 423.48,-196.32"/>
<polygon fill="black" stroke="black" points="426.98,-196.1 423.48,-186.1 419.98,-196.1 426.98,-196.1"/>
</g>
<!-- n9&#45;&gt;n17 -->
<g id="edge40" class="edge">
<title>n9&#45;&gt;n17</title>
<path fill="none" stroke="black" d="M469.66,-237.5C512.74,-218.03 576.6,-189.16 619.34,-169.84"/>
<polygon fill="black" stroke="black" points="620.98,-172.94 628.65,-165.63 618.1,-166.56 620.98,-172.94"/>
</g>
<!-- n10&#45;&gt;n13 -->
<g id="edge41" class="edge">
<title>n10&#45;&gt;n13</title>
<path fill="none" stroke="black" d="M288.88,-444.31C287.06,-435.67 285.09,-426.31 283.18,-417.28"/>
<polygon fill="black" stroke="black" points="286.56,-416.34 281.07,-407.28 279.71,-417.78 286.56,-416.34"/>
</g>
<!-- n11&#45;&gt;n14 -->
<g id="edge42" class="edge">
<title>n11&#45;&gt;n14</title>
<path fill="none" stroke="black" d="M712.48,-332.75C712.48,-324.58 712.48,-315.8 712.48,-307.27"/>
<polygon fill="black" stroke="black" points="715.98,-307.06 712.48,-297.06 708.98,-307.06 715.98,-307.06"/>
</g>
<!-- n12&#45;&gt;n15 -->
<g id="edge43" class="edge">
<title>n12&#45;&gt;n15</title>
<path fill="none" stroke="black" d="M446.26,-118.23C456.45,-105.16 468.59,-89.6 479.43,-75.71"/>
<polygon fill="black" stroke="black" points="482.25,-77.79 485.64,-67.75 476.73,-73.49 482.25,-77.79"/>
</g>
<!-- n13&#45;&gt;n16 -->
<g id="edge44" class="edge">
<title>n13&#45;&gt;n16</title>
<path fill="none" stroke="black" d="M266.88,-333.36C265.3,-324.8 263.61,-315.55 261.97,-306.61"/>
<polygon fill="black" stroke="black" points="265.39,-305.9 260.15,-296.7 258.51,-307.16 265.39,-305.9"/>
</g>
<!-- n14&#45;&gt;n17 -->
<g id="edge45" class="edge">
<title>n14&#45;&gt;n17</title>
<path fill="none" stroke="black" d="M697.29,-223.91C692.92,-213.98 688.09,-203.02 683.51,-192.64"/>
<polygon fill="black" stroke="black" points="686.64,-191.05 679.4,-183.31 680.23,-193.87 686.64,-191.05"/>
</g>
</g>
</svg>
