<?xml version="1.0" encoding="UTF-8" standalone="no"?>
<!DOCTYPE svg PUBLIC "-//W3C//DTD SVG 1.1//EN"
 "http://www.w3.org/Graphics/SVG/1.1/DTD/svg11.dtd">
<!-- Generated by graphviz version 2.43.0 (0)
 -->
<!-- Title: Flexagon Pages: 1 -->
<svg width="965pt" height="651pt"
 viewBox="0.00 0.00 964.58 651.00" xmlns="http://www.w3.org/2000/svg" xmlns:xlink="http://www.w3.org/1999/xlink">
<g id="graph0" class="graph" transform="scale(1 1) rotate(0) translate(4 647)">
<title>Flexagon</title>
<polygon fill="white" stroke="transparent" points="-4,4 -4,-647 960.58,-647 960.58,4 -4,4"/>
<!-- n0 -->
<g id="node1" class="node">
<title>n0</title>
<polygon fill="lightpink" stroke="lightpink" points="257.08,-471 198.08,-471 198.08,-430 257.08,-430 257.08,-471"/>
<text text-anchor="middle" x="227.58" y="-459" font-family="Times,serif" font-size="10.00">0</text>
<text text-anchor="middle" x="227.58" y="-448" font-family="Times,serif" font-size="10.00">7,6</text>
<text text-anchor="middle" x="227.58" y="-437" font-family="Times,serif" font-size="10.00">13,12,11</text>
</g>
<!-- n3 -->
<g id="node4" class="node">
<title>n3</title>
<polygon fill="lightcyan" stroke="lightcyan" points="254.58,-385 200.58,-385 200.58,-344 254.58,-344 254.58,-385"/>
<text text-anchor="middle" x="227.58" y="-373" font-family="Times,serif" font-size="10.00">3</text>
<text text-anchor="middle" x="227.58" y="-362" font-family="Times,serif" font-size="10.00">14,15</text>
<text text-anchor="middle" x="227.58" y="-351" font-family="Times,serif" font-size="10.00">8,9,10</text>
</g>
<!-- n0&#45;&gt;n3 -->
<g id="edge1" class="edge">
<title>n0&#45;&gt;n3</title>
<path fill="none" stroke="black" d="M227.58,-429.59C227.58,-419.45 227.58,-406.89 227.58,-395.59"/>
<polygon fill="black" stroke="black" points="231.08,-395.26 227.58,-385.26 224.08,-395.26 231.08,-395.26"/>
<text text-anchor="middle" x="239.58" y="-405.6" font-family="Times,serif" font-size="8.00">3 / 15</text>
</g>
<!-- n8 -->
<g id="node9" class="node">
<title>n8</title>
<polygon fill="lightpink" stroke="lightpink" points="428.58,-385 374.58,-385 374.58,-344 428.58,-344 428.58,-385"/>
<text text-anchor="middle" x="401.58" y="-373" font-family="Times,serif" font-size="10.00">8</text>
<text text-anchor="middle" x="401.58" y="-362" font-family="Times,serif" font-size="10.00">15,14</text>
<text text-anchor="middle" x="401.58" y="-351" font-family="Times,serif" font-size="10.00">3,2,1</text>
</g>
<!-- n0&#45;&gt;n8 -->
<g id="edge2" class="edge">
<title>n0&#45;&gt;n8</title>
<path fill="none" stroke="black" d="M257.11,-435.51C261.89,-433.51 266.83,-431.59 271.58,-430 304.91,-418.83 317.33,-428.07 348.58,-412 358.48,-406.91 368.04,-399.57 376.24,-392.22"/>
<polygon fill="black" stroke="black" points="378.77,-394.64 383.66,-385.24 373.98,-389.54 378.77,-394.64"/>
<text text-anchor="middle" x="373.58" y="-405.6" font-family="Times,serif" font-size="8.00">8 / 10</text>
</g>
<!-- n9 -->
<g id="node10" class="node">
<title>n9</title>
<polygon fill="lightcyan" stroke="lightcyan" points="143.08,-213 84.08,-213 84.08,-172 143.08,-172 143.08,-213"/>
<text text-anchor="middle" x="113.58" y="-201" font-family="Times,serif" font-size="10.00">9</text>
<text text-anchor="middle" x="113.58" y="-190" font-family="Times,serif" font-size="10.00">2,3</text>
<text text-anchor="middle" x="113.58" y="-179" font-family="Times,serif" font-size="10.00">14,15,16</text>
</g>
<!-- n0&#45;&gt;n9 -->
<g id="edge3" class="edge">
<title>n0&#45;&gt;n9</title>
<path fill="none" stroke="black" d="M205.66,-429.6C182.31,-406.98 146.3,-367.74 128.58,-326 114.53,-292.89 112.01,-251.16 112.2,-223.47"/>
<polygon fill="black" stroke="black" points="115.7,-223.31 112.4,-213.24 108.7,-223.17 115.7,-223.31"/>
<text text-anchor="middle" x="138.08" y="-319.6" font-family="Times,serif" font-size="8.00">9 / 9</text>
</g>
<!-- n10 -->
<g id="node11" class="node">
<title>n10</title>
<polygon fill="lightpink" stroke="lightpink" points="636.58,-385 582.58,-385 582.58,-344 636.58,-344 636.58,-385"/>
<text text-anchor="middle" x="609.58" y="-373" font-family="Times,serif" font-size="10.00">10</text>
<text text-anchor="middle" x="609.58" y="-362" font-family="Times,serif" font-size="10.00">17,16</text>
<text text-anchor="middle" x="609.58" y="-351" font-family="Times,serif" font-size="10.00">5,4,3</text>
</g>
<!-- n0&#45;&gt;n10 -->
<g id="edge4" class="edge">
<title>n0&#45;&gt;n10</title>
<path fill="none" stroke="black" d="M257.43,-434.78C262.08,-432.93 266.9,-431.25 271.58,-430 347.15,-409.91 369.8,-426.78 446.58,-412 490.71,-403.5 540.19,-388.6 572.94,-377.95"/>
<polygon fill="black" stroke="black" points="574.13,-381.25 582.54,-374.8 571.95,-374.6 574.13,-381.25"/>
<text text-anchor="middle" x="494.58" y="-405.6" font-family="Times,serif" font-size="8.00">10 / 8</text>
</g>
<!-- n15 -->
<g id="node16" class="node">
<title>n15</title>
<polygon fill="lightcyan" stroke="lightcyan" points="282.58,-41 228.58,-41 228.58,0 282.58,0 282.58,-41"/>
<text text-anchor="middle" x="255.58" y="-29" font-family="Times,serif" font-size="10.00">15</text>
<text text-anchor="middle" x="255.58" y="-18" font-family="Times,serif" font-size="10.00">8,9</text>
<text text-anchor="middle" x="255.58" y="-7" font-family="Times,serif" font-size="10.00">2,3,4</text>
</g>
<!-- n0&#45;&gt;n15 -->
<g id="edge5" class="edge">
<title>n0&#45;&gt;n15</title>
<path fill="none" stroke="black" d="M197.95,-435.59C177.29,-424.52 150.49,-407.2 133.58,-385 74.08,-306.84 58.85,-268.96 74.58,-172 86.27,-99.96 169.74,-55.19 219.15,-34.7"/>
<polygon fill="black" stroke="black" points="220.57,-37.9 228.55,-30.92 217.96,-31.4 220.57,-37.9"/>
<text text-anchor="middle" x="81.58" y="-233.6" font-family="Times,serif" font-size="8.00">15 / 3</text>
</g>
<!-- n1 -->
<g id="node2" class="node">
<title>n1</title>
<polygon fill="lightcyan" stroke="lightcyan" points="657.58,-643 603.58,-643 603.58,-602 657.58,-602 657.58,-643"/>
<text text-anchor="middle" x="630.58" y="-631" font-family="Times,serif" font-size="10.00">1</text>
<text text-anchor="middle" x="630.58" y="-620" font-family="Times,serif" font-size="10.00">12,13</text>
<text text-anchor="middle" x="630.58" y="-609" font-family="Times,serif" font-size="10.00">6,7,8</text>
</g>
<!-- n4 -->
<g id="node5" class="node">
<title>n4</title>
<polygon fill="lightpink" stroke="lightpink" points="720.08,-557 661.08,-557 661.08,-516 720.08,-516 720.08,-557"/>
<text text-anchor="middle" x="690.58" y="-545" font-family="Times,serif" font-size="10.00">4</text>
<text text-anchor="middle" x="690.58" y="-534" font-family="Times,serif" font-size="10.00">11,10</text>
<text text-anchor="middle" x="690.58" y="-523" font-family="Times,serif" font-size="10.00">17,16,15</text>
</g>
<!-- n1&#45;&gt;n4 -->
<g id="edge6" class="edge">
<title>n1&#45;&gt;n4</title>
<path fill="none" stroke="black" d="M644.8,-601.59C652.5,-590.82 662.13,-577.33 670.57,-565.51"/>
<polygon fill="black" stroke="black" points="673.5,-567.44 676.47,-557.26 667.81,-563.37 673.5,-567.44"/>
<text text-anchor="middle" x="673.58" y="-577.6" font-family="Times,serif" font-size="8.00">3 / 15</text>
</g>
<!-- n1&#45;&gt;n9 -->
<g id="edge7" class="edge">
<title>n1&#45;&gt;n9</title>
<path fill="none" stroke="black" d="M603.49,-622.08C549,-622.4 422.93,-618.93 324.58,-584 256.84,-559.94 240.92,-546.2 187.58,-498 93.48,-412.96 80.04,-366.01 65.58,-240 65.13,-236.03 63.83,-234.6 65.58,-231 68.2,-225.64 71.99,-220.82 76.31,-216.57"/>
<polygon fill="black" stroke="black" points="78.69,-219.13 83.97,-209.95 74.12,-213.84 78.69,-219.13"/>
<text text-anchor="middle" x="122.58" y="-405.6" font-family="Times,serif" font-size="8.00">8 / 10</text>
</g>
<!-- n1&#45;&gt;n10 -->
<g id="edge8" class="edge">
<title>n1&#45;&gt;n10</title>
<path fill="none" stroke="black" d="M629.38,-601.91C627.2,-567.22 622.28,-492.75 616.58,-430 615.56,-418.73 614.26,-406.36 613.06,-395.5"/>
<polygon fill="black" stroke="black" points="616.5,-394.79 611.91,-385.24 609.55,-395.57 616.5,-394.79"/>
<text text-anchor="middle" x="631.08" y="-491.6" font-family="Times,serif" font-size="8.00">9 / 9</text>
</g>
<!-- n11 -->
<g id="node12" class="node">
<title>n11</title>
<polygon fill="lightcyan" stroke="lightcyan" points="358.58,-299 304.58,-299 304.58,-258 358.58,-258 358.58,-299"/>
<text text-anchor="middle" x="331.58" y="-287" font-family="Times,serif" font-size="10.00">11</text>
<text text-anchor="middle" x="331.58" y="-276" font-family="Times,serif" font-size="10.00">4,5</text>
<text text-anchor="middle" x="331.58" y="-265" font-family="Times,serif" font-size="10.00">16,17,0</text>
</g>
<!-- n1&#45;&gt;n11 -->
<g id="edge9" class="edge">
<title>n1&#45;&gt;n11</title>
<path fill="none" stroke="black" d="M603.57,-620.55C523.61,-617 293.58,-601.26 293.58,-537.5 293.58,-537.5 293.58,-537.5 293.58,-406.5 293.58,-371.76 306.8,-333.83 317.64,-308.55"/>
<polygon fill="black" stroke="black" points="320.94,-309.75 321.8,-299.19 314.54,-306.91 320.94,-309.75"/>
<text text-anchor="middle" x="305.58" y="-448.6" font-family="Times,serif" font-size="8.00">10 / 8</text>
</g>
<!-- n16 -->
<g id="node17" class="node">
<title>n16</title>
<polygon fill="lightpink" stroke="lightpink" points="640.58,-213 586.58,-213 586.58,-172 640.58,-172 640.58,-213"/>
<text text-anchor="middle" x="613.58" y="-201" font-family="Times,serif" font-size="10.00">16</text>
<text text-anchor="middle" x="613.58" y="-190" font-family="Times,serif" font-size="10.00">5,4</text>
<text text-anchor="middle" x="613.58" y="-179" font-family="Times,serif" font-size="10.00">11,10,9</text>
</g>
<!-- n1&#45;&gt;n16 -->
<g id="edge10" class="edge">
<title>n1&#45;&gt;n16</title>
<path fill="none" stroke="black" d="M657.68,-619.42C729.37,-613.16 918.58,-591.54 918.58,-537.5 918.58,-537.5 918.58,-537.5 918.58,-406.5 918.58,-336.27 913.25,-308.63 864.58,-258 835.26,-227.49 713.5,-206.99 650.98,-198.26"/>
<polygon fill="black" stroke="black" points="651.14,-194.75 640.76,-196.87 650.19,-201.69 651.14,-194.75"/>
<text text-anchor="middle" x="930.58" y="-405.6" font-family="Times,serif" font-size="8.00">15 / 3</text>
</g>
<!-- n2 -->
<g id="node3" class="node">
<title>n2</title>
<polygon fill="lightpink" stroke="lightpink" points="495.08,-557 436.08,-557 436.08,-516 495.08,-516 495.08,-557"/>
<text text-anchor="middle" x="465.58" y="-545" font-family="Times,serif" font-size="10.00">2</text>
<text text-anchor="middle" x="465.58" y="-534" font-family="Times,serif" font-size="10.00">9,8</text>
<text text-anchor="middle" x="465.58" y="-523" font-family="Times,serif" font-size="10.00">15,14,13</text>
</g>
<!-- n5 -->
<g id="node6" class="node">
<title>n5</title>
<polygon fill="lightcyan" stroke="lightcyan" points="495.08,-471 436.08,-471 436.08,-430 495.08,-430 495.08,-471"/>
<text text-anchor="middle" x="465.58" y="-459" font-family="Times,serif" font-size="10.00">5</text>
<text text-anchor="middle" x="465.58" y="-448" font-family="Times,serif" font-size="10.00">16,17</text>
<text text-anchor="middle" x="465.58" y="-437" font-family="Times,serif" font-size="10.00">10,11,12</text>
</g>
<!-- n2&#45;&gt;n5 -->
<g id="edge11" class="edge">
<title>n2&#45;&gt;n5</title>
<path fill="none" stroke="black" d="M465.58,-515.59C465.58,-505.45 465.58,-492.89 465.58,-481.59"/>
<polygon fill="black" stroke="black" points="469.08,-481.26 465.58,-471.26 462.08,-481.26 469.08,-481.26"/>
<text text-anchor="middle" x="477.58" y="-491.6" font-family="Times,serif" font-size="8.00">3 / 15</text>
</g>
<!-- n2&#45;&gt;n10 -->
<g id="edge12" class="edge">
<title>n2&#45;&gt;n10</title>
<path fill="none" stroke="black" d="M495.12,-527.35C511.92,-521.47 532.38,-512.06 546.58,-498 575.73,-469.15 593.14,-424.17 602.04,-394.77"/>
<polygon fill="black" stroke="black" points="605.43,-395.65 604.84,-385.07 598.7,-393.71 605.43,-395.65"/>
<text text-anchor="middle" x="600.58" y="-448.6" font-family="Times,serif" font-size="8.00">8 / 10</text>
</g>
<!-- n2&#45;&gt;n11 -->
<g id="edge13" class="edge">
<title>n2&#45;&gt;n11</title>
<path fill="none" stroke="black" d="M435.87,-519.7C401.91,-499.76 348.12,-461.93 325.58,-412 310.8,-379.25 316.27,-337.18 322.79,-309.34"/>
<polygon fill="black" stroke="black" points="326.25,-309.96 325.31,-299.41 319.46,-308.24 326.25,-309.96"/>
<text text-anchor="middle" x="335.08" y="-405.6" font-family="Times,serif" font-size="8.00">9 / 9</text>
</g>
<!-- n12 -->
<g id="node13" class="node">
<title>n12</title>
<polygon fill="lightpink" stroke="lightpink" points="201.58,-127 147.58,-127 147.58,-86 201.58,-86 201.58,-127"/>
<text text-anchor="middle" x="174.58" y="-115" font-family="Times,serif" font-size="10.00">12</text>
<text text-anchor="middle" x="174.58" y="-104" font-family="Times,serif" font-size="10.00">1,0</text>
<text text-anchor="middle" x="174.58" y="-93" font-family="Times,serif" font-size="10.00">7,6,5</text>
</g>
<!-- n2&#45;&gt;n12 -->
<g id="edge14" class="edge">
<title>n2&#45;&gt;n12</title>
<path fill="none" stroke="black" d="M435.99,-535.54C378.06,-534.35 247.36,-525.31 155.58,-471 69.04,-419.78 43.4,-393.34 8.58,-299 -17.78,-227.58 21.72,-189.37 83.58,-145 86.05,-143.23 113.83,-131.87 138.05,-122.11"/>
<polygon fill="black" stroke="black" points="139.47,-125.31 147.44,-118.33 136.86,-118.81 139.47,-125.31"/>
<text text-anchor="middle" x="31.58" y="-319.6" font-family="Times,serif" font-size="8.00">10 / 8</text>
</g>
<!-- n17 -->
<g id="node18" class="node">
<title>n17</title>
<polygon fill="lightcyan" stroke="lightcyan" points="477.58,-127 423.58,-127 423.58,-86 477.58,-86 477.58,-127"/>
<text text-anchor="middle" x="450.58" y="-115" font-family="Times,serif" font-size="10.00">17</text>
<text text-anchor="middle" x="450.58" y="-104" font-family="Times,serif" font-size="10.00">10,11</text>
<text text-anchor="middle" x="450.58" y="-93" font-family="Times,serif" font-size="10.00">4,5,6</text>
</g>
<!-- n2&#45;&gt;n17 -->
<g id="edge15" class="edge">
<title>n2&#45;&gt;n17</title>
<path fill="none" stroke="black" d="M481.65,-515.89C485.83,-510.3 490.12,-504.07 493.58,-498 520.5,-450.74 529.93,-438.34 540.58,-385 558.62,-294.69 482.17,-152.03 478.58,-145 476.98,-141.87 475.12,-138.72 473.14,-135.65"/>
<polygon fill="black" stroke="black" points="475.91,-133.5 467.32,-127.3 470.17,-137.51 475.91,-133.5"/>
<text text-anchor="middle" x="552.58" y="-319.6" font-family="Times,serif" font-size="8.00">15 / 3</text>
</g>
<!-- n6 -->
<g id="node7" class="node">
<title>n6</title>
<polygon fill="lightpink" stroke="lightpink" points="282.58,-299 228.58,-299 228.58,-258 282.58,-258 282.58,-299"/>
<text text-anchor="middle" x="255.58" y="-287" font-family="Times,serif" font-size="10.00">6</text>
<text text-anchor="middle" x="255.58" y="-276" font-family="Times,serif" font-size="10.00">13,12</text>
<text text-anchor="middle" x="255.58" y="-265" font-family="Times,serif" font-size="10.00">1,0,17</text>
</g>
<!-- n3&#45;&gt;n6 -->
<g id="edge16" class="edge">
<title>n3&#45;&gt;n6</title>
<path fill="none" stroke="black" d="M220.91,-343.99C219.04,-335.47 218.3,-325.51 221.58,-317 222.93,-313.52 224.76,-310.15 226.89,-306.97"/>
<polygon fill="black" stroke="black" points="229.7,-309.05 233.06,-299 224.17,-304.77 229.7,-309.05"/>
<text text-anchor="middle" x="233.58" y="-319.6" font-family="Times,serif" font-size="8.00">3 / 15</text>
</g>
<!-- n3&#45;&gt;n11 -->
<g id="edge17" class="edge">
<title>n3&#45;&gt;n11</title>
<path fill="none" stroke="black" d="M242.72,-343.68C249.98,-334.91 259.14,-324.83 268.58,-317 276.74,-310.23 286.25,-303.9 295.38,-298.44"/>
<polygon fill="black" stroke="black" points="297.4,-301.31 304.31,-293.28 293.9,-295.25 297.4,-301.31"/>
<text text-anchor="middle" x="280.58" y="-319.6" font-family="Times,serif" font-size="8.00">8 / 10</text>
</g>
<!-- n3&#45;&gt;n12 -->
<g id="edge18" class="edge">
<title>n3&#45;&gt;n12</title>
<path fill="none" stroke="black" d="M200.43,-357.17C184.07,-351.81 164.53,-342.3 154.58,-326 144.98,-310.27 161.33,-193.45 169.88,-137.38"/>
<polygon fill="black" stroke="black" points="173.36,-137.75 171.42,-127.33 166.44,-136.68 173.36,-137.75"/>
<text text-anchor="middle" x="166.08" y="-233.6" font-family="Times,serif" font-size="8.00">9 / 9</text>
</g>
<!-- n13 -->
<g id="node14" class="node">
<title>n13</title>
<polygon fill="lightcyan" stroke="lightcyan" points="640.58,-299 586.58,-299 586.58,-258 640.58,-258 640.58,-299"/>
<text text-anchor="middle" x="613.58" y="-287" font-family="Times,serif" font-size="10.00">13</text>
<text text-anchor="middle" x="613.58" y="-276" font-family="Times,serif" font-size="10.00">6,7</text>
<text text-anchor="middle" x="613.58" y="-265" font-family="Times,serif" font-size="10.00">0,1,2</text>
</g>
<!-- n3&#45;&gt;n13 -->
<g id="edge19" class="edge">
<title>n3&#45;&gt;n13</title>
<path fill="none" stroke="black" d="M254.73,-357.59C322.55,-342.83 499.52,-304.32 576.7,-287.53"/>
<polygon fill="black" stroke="black" points="577.44,-290.95 586.47,-285.4 575.95,-284.11 577.44,-290.95"/>
<text text-anchor="middle" x="443.58" y="-319.6" font-family="Times,serif" font-size="8.00">10 / 8</text>
</g>
<!-- n7 -->
<g id="node8" class="node">
<title>n7</title>
<polygon fill="lightcyan" stroke="lightcyan" points="830.08,-471 771.08,-471 771.08,-430 830.08,-430 830.08,-471"/>
<text text-anchor="middle" x="800.58" y="-459" font-family="Times,serif" font-size="10.00">7</text>
<text text-anchor="middle" x="800.58" y="-448" font-family="Times,serif" font-size="10.00">0,1</text>
<text text-anchor="middle" x="800.58" y="-437" font-family="Times,serif" font-size="10.00">12,13,14</text>
</g>
<!-- n4&#45;&gt;n7 -->
<g id="edge20" class="edge">
<title>n4&#45;&gt;n7</title>
<path fill="none" stroke="black" d="M718.3,-515.91C726.21,-510.21 734.79,-503.93 742.58,-498 751.22,-491.43 760.45,-484.15 768.94,-477.35"/>
<polygon fill="black" stroke="black" points="771.22,-480.01 776.81,-471.01 766.83,-474.55 771.22,-480.01"/>
<text text-anchor="middle" x="765.58" y="-491.6" font-family="Times,serif" font-size="8.00">3 / 15</text>
</g>
<!-- n4&#45;&gt;n12 -->
<g id="edge21" class="edge">
<title>n4&#45;&gt;n12</title>
<path fill="none" stroke="black" d="M660.91,-532.2C554.44,-520.31 197.57,-479.86 189.58,-471 165.32,-444.09 185.36,-181.04 181.58,-145 181.32,-142.46 180.97,-139.84 180.58,-137.22"/>
<polygon fill="black" stroke="black" points="184.01,-136.53 178.88,-127.26 177.11,-137.71 184.01,-136.53"/>
<text text-anchor="middle" x="189.58" y="-319.6" font-family="Times,serif" font-size="8.00">8 / 10</text>
</g>
<!-- n4&#45;&gt;n13 -->
<g id="edge22" class="edge">
<title>n4&#45;&gt;n13</title>
<path fill="none" stroke="black" d="M698.87,-515.81C708.77,-489.17 722.19,-440.68 706.58,-403 702.25,-392.55 695.89,-393.64 688.58,-385 682.63,-377.96 653.52,-336.63 633.36,-307.84"/>
<polygon fill="black" stroke="black" points="636.03,-305.55 627.43,-299.36 630.3,-309.56 636.03,-305.55"/>
<text text-anchor="middle" x="718.08" y="-405.6" font-family="Times,serif" font-size="8.00">9 / 9</text>
</g>
<!-- n14 -->
<g id="node15" class="node">
<title>n14</title>
<polygon fill="lightpink" stroke="lightpink" points="477.58,-213 423.58,-213 423.58,-172 477.58,-172 477.58,-213"/>
<text text-anchor="middle" x="450.58" y="-201" font-family="Times,serif" font-size="10.00">14</text>
<text text-anchor="middle" x="450.58" y="-190" font-family="Times,serif" font-size="10.00">3,2</text>
<text text-anchor="middle" x="450.58" y="-179" font-family="Times,serif" font-size="10.00">9,8,7</text>
</g>
<!-- n4&#45;&gt;n14 -->
<g id="edge23" class="edge">
<title>n4&#45;&gt;n14</title>
<path fill="none" stroke="black" d="M694.34,-515.65C702.62,-465.39 716.7,-331.91 649.58,-258 643.97,-251.81 543.57,-221.19 487.58,-204.46"/>
<polygon fill="black" stroke="black" points="488.26,-201.01 477.67,-201.5 486.26,-207.71 488.26,-201.01"/>
<text text-anchor="middle" x="710.58" y="-362.6" font-family="Times,serif" font-size="8.00">10 / 8</text>
</g>
<!-- n5&#45;&gt;n8 -->
<g id="edge24" class="edge">
<title>n5&#45;&gt;n8</title>
<path fill="none" stroke="black" d="M435.91,-429.91C429.56,-424.67 423.34,-418.61 418.58,-412 414.92,-406.91 411.96,-400.93 409.6,-395"/>
<polygon fill="black" stroke="black" points="412.79,-393.5 406.19,-385.21 406.18,-395.8 412.79,-393.5"/>
<text text-anchor="middle" x="430.58" y="-405.6" font-family="Times,serif" font-size="8.00">3 / 15</text>
</g>
<!-- n5&#45;&gt;n13 -->
<g id="edge25" class="edge">
<title>n5&#45;&gt;n13</title>
<path fill="none" stroke="black" d="M492.26,-429.93C498.68,-424.53 505.22,-418.39 510.58,-412 532.98,-385.32 525.38,-369.06 549.58,-344 560.12,-333.09 567.39,-336.23 578.58,-326 584.43,-320.66 589.97,-314.23 594.86,-307.88"/>
<polygon fill="black" stroke="black" points="598,-309.51 601.07,-299.38 592.34,-305.38 598,-309.51"/>
<text text-anchor="middle" x="561.58" y="-362.6" font-family="Times,serif" font-size="8.00">8 / 10</text>
</g>
<!-- n5&#45;&gt;n14 -->
<g id="edge26" class="edge">
<title>n5&#45;&gt;n14</title>
<path fill="none" stroke="black" d="M467.16,-429.97C467.97,-421.63 469.1,-411.81 470.58,-403 481.44,-338.59 513.84,-320.42 494.58,-258 490.51,-244.82 482.72,-231.92 474.82,-221.16"/>
<polygon fill="black" stroke="black" points="477.41,-218.8 468.52,-213.04 471.88,-223.08 477.41,-218.8"/>
<text text-anchor="middle" x="506.08" y="-319.6" font-family="Times,serif" font-size="8.00">9 / 9</text>
</g>
<!-- n5&#45;&gt;n15 -->
<g id="edge27" class="edge">
<title>n5&#45;&gt;n15</title>
<path fill="none" stroke="black" d="M495.48,-442.83C514.83,-438.69 540.6,-433.51 563.58,-430 600.7,-424.33 706.49,-439.93 731.58,-412 737.58,-405.33 759.01,-469.55 726.58,-344 705.64,-262.91 706.86,-233.1 649.58,-172 550.94,-66.77 370.82,-34.37 293.02,-25.03"/>
<polygon fill="black" stroke="black" points="293.07,-21.51 282.74,-23.86 292.28,-28.47 293.07,-21.51"/>
<text text-anchor="middle" x="708.58" y="-233.6" font-family="Times,serif" font-size="8.00">10 / 8</text>
</g>
<!-- n6&#45;&gt;n9 -->
<g id="edge28" class="edge">
<title>n6&#45;&gt;n9</title>
<path fill="none" stroke="black" d="M228.36,-276.63C199.83,-274.26 155.49,-266.25 128.58,-240 123.88,-235.41 120.65,-229.35 118.43,-223.12"/>
<polygon fill="black" stroke="black" points="121.77,-222.07 115.71,-213.38 115.03,-223.95 121.77,-222.07"/>
<text text-anchor="middle" x="140.58" y="-233.6" font-family="Times,serif" font-size="8.00">3 / 15</text>
</g>
<!-- n6&#45;&gt;n14 -->
<g id="edge29" class="edge">
<title>n6&#45;&gt;n14</title>
<path fill="none" stroke="black" d="M282.61,-264.1C286.93,-262.03 291.37,-259.93 295.58,-258 335.69,-239.64 382.55,-220.45 414.16,-207.82"/>
<polygon fill="black" stroke="black" points="415.46,-211.07 423.46,-204.12 412.87,-204.57 415.46,-211.07"/>
<text text-anchor="middle" x="366.58" y="-233.6" font-family="Times,serif" font-size="8.00">8 / 10</text>
</g>
<!-- n6&#45;&gt;n15 -->
<g id="edge30" class="edge">
<title>n6&#45;&gt;n15</title>
<path fill="none" stroke="black" d="M255.58,-257.84C255.58,-213.26 255.58,-104.27 255.58,-51.33"/>
<polygon fill="black" stroke="black" points="259.08,-51.23 255.58,-41.23 252.08,-51.23 259.08,-51.23"/>
<text text-anchor="middle" x="265.08" y="-147.6" font-family="Times,serif" font-size="8.00">9 / 9</text>
</g>
<!-- n6&#45;&gt;n16 -->
<g id="edge31" class="edge">
<title>n6&#45;&gt;n16</title>
<path fill="none" stroke="black" d="M282.66,-262.9C286.9,-261.03 291.3,-259.31 295.58,-258 350.09,-241.31 367.45,-254.48 422.58,-240 433.2,-237.21 435.08,-234.21 445.58,-231 489.88,-217.48 542.11,-206.59 576.43,-200.09"/>
<polygon fill="black" stroke="black" points="577.29,-203.49 586.48,-198.22 576.01,-196.61 577.29,-203.49"/>
<text text-anchor="middle" x="457.58" y="-233.6" font-family="Times,serif" font-size="8.00">10 / 8</text>
</g>
<!-- n7&#45;&gt;n10 -->
<g id="edge32" class="edge">
<title>n7&#45;&gt;n10</title>
<path fill="none" stroke="black" d="M770.69,-442.3C746.34,-435.9 711.4,-425.48 682.58,-412 669.89,-406.07 656.76,-398.29 645.2,-390.79"/>
<polygon fill="black" stroke="black" points="646.96,-387.76 636.69,-385.15 643.09,-393.6 646.96,-387.76"/>
<text text-anchor="middle" x="694.58" y="-405.6" font-family="Times,serif" font-size="8.00">3 / 15</text>
</g>
<!-- n7&#45;&gt;n15 -->
<g id="edge33" class="edge">
<title>n7&#45;&gt;n15</title>
<path fill="none" stroke="black" d="M823.27,-429.99C861.02,-395.23 932.58,-318.51 932.58,-236.5 932.58,-236.5 932.58,-236.5 932.58,-105.5 932.58,-40.57 435.84,-25.24 293.36,-22.18"/>
<polygon fill="black" stroke="black" points="293.03,-18.67 282.96,-21.97 292.89,-25.67 293.03,-18.67"/>
<text text-anchor="middle" x="944.58" y="-233.6" font-family="Times,serif" font-size="8.00">8 / 10</text>
</g>
<!-- n7&#45;&gt;n16 -->
<g id="edge34" class="edge">
<title>n7&#45;&gt;n16</title>
<path fill="none" stroke="black" d="M801.82,-429.74C804.38,-381.64 808.1,-260.26 782.58,-231 765.62,-211.55 695.36,-201.32 650.95,-196.69"/>
<polygon fill="black" stroke="black" points="651.1,-193.19 640.81,-195.69 650.41,-200.16 651.1,-193.19"/>
<text text-anchor="middle" x="812.08" y="-319.6" font-family="Times,serif" font-size="8.00">9 / 9</text>
</g>
<!-- n7&#45;&gt;n17 -->
<g id="edge35" class="edge">
<title>n7&#45;&gt;n17</title>
<path fill="none" stroke="black" d="M810.36,-429.65C812.75,-424.06 815.05,-417.89 816.58,-412 836.88,-333.75 857.76,-286.08 798.58,-231 708.42,-147.08 557.57,-119.56 487.92,-111.05"/>
<polygon fill="black" stroke="black" points="488.19,-107.56 477.85,-109.89 487.38,-114.52 488.19,-107.56"/>
<text text-anchor="middle" x="848.58" y="-276.6" font-family="Times,serif" font-size="8.00">10 / 8</text>
</g>
<!-- n8&#45;&gt;n11 -->
<g id="edge36" class="edge">
<title>n8&#45;&gt;n11</title>
<path fill="none" stroke="black" d="M381.64,-343.72C376.27,-338.13 370.57,-331.95 365.58,-326 360.72,-320.21 355.77,-313.78 351.19,-307.6"/>
<polygon fill="black" stroke="black" points="353.95,-305.44 345.25,-299.4 348.29,-309.55 353.95,-305.44"/>
<text text-anchor="middle" x="377.58" y="-319.6" font-family="Times,serif" font-size="8.00">3 / 15</text>
</g>
<!-- n8&#45;&gt;n16 -->
<g id="edge37" class="edge">
<title>n8&#45;&gt;n16</title>
<path fill="none" stroke="black" d="M417.43,-343.6C424.69,-335.01 433.66,-325.1 442.58,-317 485.96,-277.64 541.89,-239.26 577.75,-215.99"/>
<polygon fill="black" stroke="black" points="579.9,-218.77 586.41,-210.41 576.11,-212.88 579.9,-218.77"/>
<text text-anchor="middle" x="526.58" y="-276.6" font-family="Times,serif" font-size="8.00">8 / 10</text>
</g>
<!-- n8&#45;&gt;n17 -->
<g id="edge38" class="edge">
<title>n8&#45;&gt;n17</title>
<path fill="none" stroke="black" d="M400.64,-343.91C398.43,-320.29 391.19,-280.92 367.58,-258 348.62,-239.58 303.88,-255.17 314.58,-231 334.88,-185.15 381.54,-149.04 414.53,-127.99"/>
<polygon fill="black" stroke="black" points="416.79,-130.71 423.44,-122.46 413.1,-124.76 416.79,-130.71"/>
<text text-anchor="middle" x="324.08" y="-233.6" font-family="Times,serif" font-size="8.00">9 / 9</text>
</g>
<!-- n9&#45;&gt;n12 -->
<g id="edge39" class="edge">
<title>n9&#45;&gt;n12</title>
<path fill="none" stroke="black" d="M93.74,-171.55C87.79,-163.13 84.13,-153.37 89.58,-145 100.19,-128.73 119.61,-119.47 137.22,-114.23"/>
<polygon fill="black" stroke="black" points="138.51,-117.51 147.29,-111.58 136.73,-110.74 138.51,-117.51"/>
<text text-anchor="middle" x="101.58" y="-147.6" font-family="Times,serif" font-size="8.00">3 / 15</text>
</g>
<!-- n9&#45;&gt;n17 -->
<g id="edge40" class="edge">
<title>n9&#45;&gt;n17</title>
<path fill="none" stroke="black" d="M143.33,-174.24C161.83,-164.24 186.43,-152.23 209.58,-145 279.48,-123.17 364.91,-113.72 413,-109.89"/>
<polygon fill="black" stroke="black" points="413.54,-113.36 423.24,-109.11 413.01,-106.38 413.54,-113.36"/>
<text text-anchor="middle" x="221.58" y="-147.6" font-family="Times,serif" font-size="8.00">8 / 10</text>
</g>
<!-- n10&#45;&gt;n13 -->
<g id="edge41" class="edge">
<title>n10&#45;&gt;n13</title>
<path fill="none" stroke="black" d="M610.53,-343.59C611.01,-333.45 611.61,-320.89 612.15,-309.59"/>
<polygon fill="black" stroke="black" points="615.66,-309.42 612.64,-299.26 608.67,-309.09 615.66,-309.42"/>
<text text-anchor="middle" x="623.58" y="-319.6" font-family="Times,serif" font-size="8.00">3 / 15</text>
</g>
<!-- n11&#45;&gt;n14 -->
<g id="edge42" class="edge">
<title>n11&#45;&gt;n14</title>
<path fill="none" stroke="black" d="M358.59,-258.44C375.2,-246.71 396.7,-231.53 414.74,-218.8"/>
<polygon fill="black" stroke="black" points="417.12,-221.4 423.28,-212.78 413.09,-215.68 417.12,-221.4"/>
<text text-anchor="middle" x="406.58" y="-233.6" font-family="Times,serif" font-size="8.00">3 / 15</text>
</g>
<!-- n12&#45;&gt;n15 -->
<g id="edge43" class="edge">
<title>n12&#45;&gt;n15</title>
<path fill="none" stroke="black" d="M192.38,-85.86C200.05,-77.5 209.17,-67.69 217.58,-59 220.95,-55.52 224.53,-51.9 228.09,-48.34"/>
<polygon fill="black" stroke="black" points="230.67,-50.71 235.3,-41.18 225.73,-45.74 230.67,-50.71"/>
<text text-anchor="middle" x="229.58" y="-61.6" font-family="Times,serif" font-size="8.00">3 / 15</text>
</g>
<!-- n13&#45;&gt;n16 -->
<g id="edge44" class="edge">
<title>n13&#45;&gt;n16</title>
<path fill="none" stroke="black" d="M613.58,-257.59C613.58,-247.45 613.58,-234.89 613.58,-223.59"/>
<polygon fill="black" stroke="black" points="617.08,-223.26 613.58,-213.26 610.08,-223.26 617.08,-223.26"/>
<text text-anchor="middle" x="625.58" y="-233.6" font-family="Times,serif" font-size="8.00">3 / 15</text>
</g>
<!-- n14&#45;&gt;n17 -->
<g id="edge45" class="edge">
<title>n14&#45;&gt;n17</title>
<path fill="none" stroke="black" d="M450.58,-171.59C450.58,-161.45 450.58,-148.89 450.58,-137.59"/>
<polygon fill="black" stroke="black" points="454.08,-137.26 450.58,-127.26 447.08,-137.26 454.08,-137.26"/>
<text text-anchor="middle" x="462.58" y="-147.6" font-family="Times,serif" font-size="8.00">3 / 15</text>
</g>
</g>
</svg>
